<?xml version="1.0" standalone="no"?>
<!DOCTYPE svg PUBLIC "-//W3C//DTD SVG 20010904//EN"
 "http://www.w3.org/TR/2001/REC-SVG-20010904/DTD/svg10.dtd">
<svg version="1.0" xmlns="http://www.w3.org/2000/svg"
 width="57.000000pt" height="51.000000pt" viewBox="0 0 57.000000 51.000000"
 preserveAspectRatio="xMidYMid meet">
<metadata>
Created by potrace 1.10, written by Peter Selinger 2001-2011
</metadata>
<g transform="translate(0.000000,51.000000) scale(0.100000,-0.100000)"
fill="#1e88e5" stroke="none">
<path d="M209 318 c-48 -40 -65 -119 -30 -137 10 -6 21 -8 23 -5 3 2 11 -2 18
-11 16 -19 44 -19 60 0 16 19 44 19 60 0 16 -19 44 -19 60 0 7 9 15 13 18 10
11 -10 32 19 32 44 0 36 -10 48 -45 57 -17 3 -40 16 -52 27 -28 25 -120 35
-144 15z m128 -37 c6 -10 28 -22 47 -25 30 -6 36 -11 36 -31 0 -14 -4 -25 -10
-25 -5 0 -10 5 -10 10 0 6 -11 10 -24 10 -14 0 -28 -4 -31 -10 -9 -15 -56 -12
-75 5 -17 15 -50 11 -50 -6 0 -5 -9 -9 -20 -9 -26 0 -26 24 1 66 19 32 24 34
72 34 40 0 55 -4 64 -19z m-77 -89 c0 -13 -12 -22 -22 -16 -10 6 -1 24 13 24
5 0 9 -4 9 -8z m121 -5 c-1 -12 -15 -9 -19 4 -3 6 1 10 8 8 6 -3 11 -8 11 -12z"/>
</g>
</svg>
